<svg width="84" height="56" viewBox="0 0 84 56" fill="none" xmlns="http://www.w3.org/2000/svg">
<g filter="url(#filter0_d_24_623)">
<rect x="12" y="12" width="24" height="24" rx="5" fill="white"/>
<path d="M29.5 15C27.57 15 26 16.57 26 18.5V20H22V18.5C22 16.57 20.43 15 18.5 15C16.57 15 15 16.57 15 18.5C15 20.43 16.57 22 18.5 22H20V26H18.5C16.57 26 15 27.57 15 29.5C15 31.43 16.57 33 18.5 33C20.43 33 22 31.43 22 29.5V28H26V29.5C26 31.43 27.57 33 29.5 33C31.43 33 33 31.43 33 29.5C33 27.57 31.43 26 29.5 26H28V22H29.5C31.43 22 33 20.43 33 18.5C33 16.57 31.43 15 29.5 15ZM28 20V18.5C28 17.67 28.67 17 29.5 17C30.33 17 31 17.67 31 18.5C31 19.33 30.33 20 29.5 20H28ZM18.5 20C17.67 20 17 19.33 17 18.5C17 17.67 17.67 17 18.5 17C19.33 17 20 17.67 20 18.5V20H18.5ZM22 26V22H26V26H22ZM29.5 31C28.67 31 28 30.33 28 29.5V28H29.5C30.33 28 31 28.67 31 29.5C31 30.33 30.33 31 29.5 31ZM18.5 31C17.67 31 17 30.33 17 29.5C17 28.67 17.67 28 18.5 28H20V29.5C20 30.33 19.33 31 18.5 31Z" fill="#969696"/>
</g>
<g filter="url(#filter1_d_24_623)">
<rect x="40" y="12" width="24" height="24" rx="5" fill="white" shape-rendering="crispEdges"/>
<path d="M48.9027 30V19.8182H55.4254V21.3643H50.7472V24.1286H54.978V25.6747H50.7472V30H48.9027Z" fill="#969696"/>
</g>
<defs>
<filter id="filter0_d_24_623" x="0" y="0" width="56" height="56" filterUnits="userSpaceOnUse" color-interpolation-filters="sRGB">
<feFlood flood-opacity="0" result="BackgroundImageFix"/>
<feColorMatrix in="SourceAlpha" type="matrix" values="0 0 0 0 0 0 0 0 0 0 0 0 0 0 0 0 0 0 127 0" result="hardAlpha"/>
<feOffset dx="4" dy="4"/>
<feGaussianBlur stdDeviation="8"/>
<feComposite in2="hardAlpha" operator="out"/>
<feColorMatrix type="matrix" values="0 0 0 0 0 0 0 0 0 0 0 0 0 0 0 0 0 0 0.15 0"/>
<feBlend mode="normal" in2="BackgroundImageFix" result="effect1_dropShadow_24_623"/>
<feBlend mode="normal" in="SourceGraphic" in2="effect1_dropShadow_24_623" result="shape"/>
</filter>
<filter id="filter1_d_24_623" x="28" y="0" width="56" height="56" filterUnits="userSpaceOnUse" color-interpolation-filters="sRGB">
<feFlood flood-opacity="0" result="BackgroundImageFix"/>
<feColorMatrix in="SourceAlpha" type="matrix" values="0 0 0 0 0 0 0 0 0 0 0 0 0 0 0 0 0 0 127 0" result="hardAlpha"/>
<feOffset dx="4" dy="4"/>
<feGaussianBlur stdDeviation="8"/>
<feComposite in2="hardAlpha" operator="out"/>
<feColorMatrix type="matrix" values="0 0 0 0 0 0 0 0 0 0 0 0 0 0 0 0 0 0 0.15 0"/>
<feBlend mode="normal" in2="BackgroundImageFix" result="effect1_dropShadow_24_623"/>
<feBlend mode="normal" in="SourceGraphic" in2="effect1_dropShadow_24_623" result="shape"/>
</filter>
</defs>
</svg>
