<svg width="18" height="18" viewBox="0 0 18 18" fill="none" xmlns="http://www.w3.org/2000/svg">
<path d="M11.25 12L8.25 15H14.25C15.075 15 15.75 14.325 15.75 13.5C15.75 12.675 15.075 12 14.25 12H11.25Z" fill="#969696"/>
<path d="M9.045 5.39255L2.4675 11.97C2.3325 12.105 2.25 12.3 2.25 12.495V14.25C2.25 14.6625 2.5875 15 3 15H4.755C4.9575 15 5.145 14.9175 5.2875 14.7825L11.865 8.20505L9.045 5.39255Z" fill="#969696"/>
<path d="M14.0325 6.03004C14.325 5.73754 14.325 5.26504 14.0325 4.97254L12.2775 3.21754C11.985 2.92504 11.5125 2.92504 11.22 3.21754L9.8475 4.59004L12.66 7.40254L14.0325 6.03004Z" fill="#969696"/>
</svg>
