<svg width="29" height="32" viewBox="0 0 29 32" fill="none" xmlns="http://www.w3.org/2000/svg">
<path d="M18.7262 32L28.4444 22.1867V2.70223C28.4444 0.640011 27.5994 1.13396e-05 25.3459 1.13396e-05L21.8587 8.46227e-06C15.7603 2.59873e-06 4.13873 -8.5753e-06 2.59966 1.13396e-05C0.627864 3.68538e-05 0 0.782256 0 2.70223C7.16585e-10 4.62221 0.0586848 27.4489 0.0586848 29.3689C0.0586848 31.2889 0.627864 32 2.7405 32H18.7262Z" fill="#F5AE29"/>
<path d="M18.7262 22.1867L18.7262 32L28.4444 22.1867L18.7262 22.1867Z" fill="#F9D591"/>
<path d="M5.84913 20.2401L5.20528 24.337C5.20528 24.6429 5.30726 24.7467 5.60769 24.7467L9.79275 24.2551C9.93223 24.2551 10.0181 24.1185 10.1147 24.0092L21.498 12.4193L17.4744 8.32296L6.01009 19.9123C5.9028 20.0215 5.84913 20.0871 5.84913 20.2401ZM24.6095 9.25147C25.028 8.82545 25.028 8.13726 24.6095 7.71123L22.0988 5.1551C21.6804 4.72908 21.0044 4.72908 20.586 5.1551L18.6225 7.15413L22.646 11.2505L24.6095 9.25147Z" fill="white"/>
</svg>
